<svg id="SvgjsSvg1006" width="597" height="300" xmlns="http://www.w3.org/2000/svg" version="1.1" xmlns:xlink="http://www.w3.org/1999/xlink" xmlns:svgjs="http://svgjs.com/svgjs"><defs id="SvgjsDefs1007"><marker id="SvgjsMarker1064" markerWidth="14" markerHeight="10" refX="10" refY="5" viewBox="0 0 14 10" orient="auto" markerUnits="userSpaceOnUse" stroke-dasharray="0,0"><path id="SvgjsPath1065" d="M0,0 L14,5 L0,10 L0,0" fill="#323232" stroke="#323232" stroke-width="1"></path></marker><marker id="SvgjsMarker1068" markerWidth="14" markerHeight="10" refX="10" refY="5" viewBox="0 0 14 10" orient="auto" markerUnits="userSpaceOnUse" stroke-dasharray="0,0"><path id="SvgjsPath1069" d="M0,0 L14,5 L0,10 L0,0" fill="#323232" stroke="#323232" stroke-width="1"></path></marker><marker id="SvgjsMarker1072" markerWidth="14" markerHeight="10" refX="10" refY="5" viewBox="0 0 14 10" orient="auto" markerUnits="userSpaceOnUse" stroke-dasharray="0,0"><path id="SvgjsPath1073" d="M0,0 L14,5 L0,10 L0,0" fill="#323232" stroke="#323232" stroke-width="1"></path></marker><marker id="SvgjsMarker1076" markerWidth="14" markerHeight="10" refX="10" refY="5" viewBox="0 0 14 10" orient="auto" markerUnits="userSpaceOnUse" stroke-dasharray="0,0"><path id="SvgjsPath1077" d="M0,0 L14,5 L0,10 L0,0" fill="#323232" stroke="#323232" stroke-width="1"></path></marker><marker id="SvgjsMarker1080" markerWidth="14" markerHeight="10" refX="10" refY="5" viewBox="0 0 14 10" orient="auto" markerUnits="userSpaceOnUse" stroke-dasharray="0,0"><path id="SvgjsPath1081" d="M0,0 L14,5 L0,10 L0,0" fill="#323232" stroke="#323232" stroke-width="1"></path></marker></defs><g id="SvgjsG1008" transform="translate(25.002254791431824,25)"><path id="SvgjsPath1009" d="M 0 4Q 0 0 4 0L 217.49774520856818 0Q 221.49774520856818 0 221.49774520856818 4L 221.49774520856818 116Q 221.49774520856818 120 217.49774520856818 120L 4 120Q 0 120 0 116Z" stroke="rgba(184,184,184,1)" stroke-width="1" fill-opacity="1" fill="#ffffff"></path><g id="SvgjsG1010"><text id="SvgjsText1011" font-family="微软雅黑" text-anchor="start" font-size="22px" width="202px" fill="#323232" font-weight="400" align="middle" lineHeight="125%" anchor="start" family="微软雅黑" size="22px" weight="400" font-style="" opacity="1" y="0.25" transform="rotate(0)"><tspan id="SvgjsTspan1012" dy="27" x="10"><tspan id="SvgjsTspan1013" style="text-decoration:;">Obj []Course CS</tspan></tspan><tspan id="SvgjsTspan1014" dy="27" x="10"><tspan id="SvgjsTspan1015" style="text-decoration:;">    Course c1</tspan></tspan><tspan id="SvgjsTspan1016" dy="27" x="10"><tspan id="SvgjsTspan1017" style="text-decoration:;">    Course c2</tspan></tspan><tspan id="SvgjsTspan1018" dy="27" x="10"><tspan id="SvgjsTspan1019" style="text-decoration:;">    Course c3</tspan></tspan></text></g></g><g id="SvgjsG1020" transform="translate(25.002254791431824,155)"><path id="SvgjsPath1021" d="M 0 4Q 0 0 4 0L 217.49774520856818 0Q 221.49774520856818 0 221.49774520856818 4L 221.49774520856818 116Q 221.49774520856818 120 217.49774520856818 120L 4 120Q 0 120 0 116Z" stroke="rgba(184,184,184,1)" stroke-width="1" fill-opacity="1" fill="#ffffff"></path><g id="SvgjsG1022"><text id="SvgjsText1023" font-family="微软雅黑" text-anchor="start" font-size="22px" width="202px" fill="#323232" font-weight="400" align="middle" lineHeight="125%" anchor="start" family="微软雅黑" size="22px" weight="400" font-style="" opacity="1" y="13.75" transform="rotate(0)"><tspan id="SvgjsTspan1024" dy="27" x="10"><tspan id="SvgjsTspan1025" style="text-decoration:;">Obj []Course Math</tspan></tspan><tspan id="SvgjsTspan1026" dy="27" x="10"><tspan id="SvgjsTspan1027" style="text-decoration:;">    Course c1</tspan></tspan><tspan id="SvgjsTspan1028" dy="27" x="10"><tspan id="SvgjsTspan1029" style="text-decoration:;">    Course c2</tspan></tspan></text></g></g><g id="SvgjsG1030" transform="translate(340.0022547914318,27)"><path id="SvgjsPath1031" d="M 0 4Q 0 0 4 0L 228.49774520856818 0Q 232.49774520856818 0 232.49774520856818 4L 232.49774520856818 33Q 232.49774520856818 37 228.49774520856818 37L 4 37Q 0 37 0 33Z" stroke="rgba(184,184,184,1)" stroke-width="1" fill-opacity="1" fill="#ffffff"></path><g id="SvgjsG1032"><text id="SvgjsText1033" font-family="微软雅黑" text-anchor="start" font-size="16px" width="213px" fill="#323232" font-weight="400" align="middle" lineHeight="125%" anchor="start" family="微软雅黑" size="16px" weight="400" font-style="" opacity="1" y="-5.5" transform="rotate(0)"><tspan id="SvgjsTspan1034" dy="20" x="10"><tspan id="SvgjsTspan1035" style="text-decoration:;">Obj Course </tspan></tspan><tspan id="SvgjsTspan1036" dy="20" x="10"><tspan id="SvgjsTspan1037" style="text-decoration:;">Computer Achitecture</tspan></tspan></text></g></g><g id="SvgjsG1038" transform="translate(340.0022547914318,89)"><path id="SvgjsPath1039" d="M 0 4Q 0 0 4 0L 228.49774520856818 0Q 232.49774520856818 0 232.49774520856818 4L 232.49774520856818 33Q 232.49774520856818 37 228.49774520856818 37L 4 37Q 0 37 0 33Z" stroke="rgba(184,184,184,1)" stroke-width="1" fill-opacity="1" fill="#ffffff"></path><g id="SvgjsG1040"><text id="SvgjsText1041" font-family="微软雅黑" text-anchor="start" font-size="16px" width="213px" fill="#323232" font-weight="400" align="middle" lineHeight="125%" anchor="start" family="微软雅黑" size="16px" weight="400" font-style="" opacity="1" y="-5.5" transform="rotate(0)"><tspan id="SvgjsTspan1042" dy="20" x="10"><tspan id="SvgjsTspan1043" style="text-decoration:;">Obj Course</tspan></tspan><tspan id="SvgjsTspan1044" dy="20" x="10"><tspan id="SvgjsTspan1045" style="text-decoration:;">Computer Operating System</tspan></tspan></text></g></g><g id="SvgjsG1046" transform="translate(340.0022547914318,151)"><path id="SvgjsPath1047" d="M 0 4Q 0 0 4 0L 228.49774520856818 0Q 232.49774520856818 0 232.49774520856818 4L 232.49774520856818 33Q 232.49774520856818 37 228.49774520856818 37L 4 37Q 0 37 0 33Z" stroke="rgba(184,184,184,1)" stroke-width="1" fill-opacity="1" fill="#ffffff"></path><g id="SvgjsG1048"><text id="SvgjsText1049" font-family="微软雅黑" text-anchor="start" font-size="16px" width="213px" fill="#323232" font-weight="400" align="middle" lineHeight="125%" anchor="start" family="微软雅黑" size="16px" weight="400" font-style="" opacity="1" y="-5.5" transform="rotate(0)"><tspan id="SvgjsTspan1050" dy="20" x="10"><tspan id="SvgjsTspan1051" style="text-decoration:;">Obj Course </tspan></tspan><tspan id="SvgjsTspan1052" dy="20" x="10"><tspan id="SvgjsTspan1053" style="text-decoration:;">Calculus</tspan></tspan></text></g></g><g id="SvgjsG1054" transform="translate(340.0022547914318,231)"><path id="SvgjsPath1055" d="M 0 4Q 0 0 4 0L 228.49774520856818 0Q 232.49774520856818 0 232.49774520856818 4L 232.49774520856818 33Q 232.49774520856818 37 228.49774520856818 37L 4 37Q 0 37 0 33Z" stroke="rgba(184,184,184,1)" stroke-width="1" fill-opacity="1" fill="#ffffff"></path><g id="SvgjsG1056"><text id="SvgjsText1057" font-family="微软雅黑" text-anchor="start" font-size="16px" width="213px" fill="#323232" font-weight="400" align="middle" lineHeight="125%" anchor="start" family="微软雅黑" size="16px" weight="400" font-style="" opacity="1" y="-5.5" transform="rotate(0)"><tspan id="SvgjsTspan1058" dy="20" x="10"><tspan id="SvgjsTspan1059" style="text-decoration:;">Obj Course</tspan></tspan><tspan id="SvgjsTspan1060" dy="20" x="10"><tspan id="SvgjsTspan1061" style="text-decoration:;">Set theory</tspan></tspan></text></g></g><g id="SvgjsG1062"><path id="SvgjsPath1063" d="M247 85L293.2511273957159 85L293.2511273957159 45.5L336.9022547914318 45.5" stroke="#323232" stroke-width="2" fill="none" marker-end="url(#SvgjsMarker1064)"></path></g><g id="SvgjsG1066"><path id="SvgjsPath1067" d="M247 85L293.2511273957159 85L293.2511273957159 107.5L336.9022547914318 107.5" stroke="#323232" stroke-width="2" fill="none" marker-end="url(#SvgjsMarker1068)"></path></g><g id="SvgjsG1070"><path id="SvgjsPath1071" d="M247 85L293.2511273957159 85L293.2511273957159 169.5L336.9022547914318 169.5" stroke="#323232" stroke-width="2" fill="none" marker-end="url(#SvgjsMarker1072)"></path></g><g id="SvgjsG1074"><path id="SvgjsPath1075" d="M247 215L293.53208888623794 215L293.53208888623794 182.42884956125386L337.46417777247586 182.42884956125386" stroke="#323232" stroke-width="2" fill="none" marker-end="url(#SvgjsMarker1076)"></path></g><g id="SvgjsG1078"><path id="SvgjsPath1079" d="M247 215L293.2511273957159 215L293.2511273957159 249.5L336.9022547914318 249.5" stroke="#323232" stroke-width="2" fill="none" marker-end="url(#SvgjsMarker1080)"></path></g></svg>